# xmcd
#
# Track frame offsets: 
#        150
#        27871
#        50079
#        79081
#        120772
#
# Disc length: 2197 seconds
#
# Revision: 1
# Processed by: cddbd v1.5.2PL0 Copyright (c) Steve Scherf et al.
# Submitted via: ExactAudioCopy v1.0b3
#
DISCID=32089305
DTITLE=Sigur Rós - Hvarf
DYEAR=2007
DGENRE=Post-rock
TTITLE0=Salka
TTITLE1=Hljómalind
TTITLE2=Í Gæ
TTITLE3=Von
TTITLE4=Hafsól
EXTD=
EXTT0=
EXTT1=
EXTT2=
EXTT3=
EXTT4=
PLAYORDER=
